HIERARCHY
ROOT Bip001_Pelvis
{
  OFFSET 33.2923 95.8902 -28.781
  CHANNELS 6 Xposition Yposition Zposition Zrotation Xrotation Yrotation
  JOINT Bip001_Spine
  {
    OFFSET 1.4188e-005 10.2191 -0.0116013
    CHANNELS 3 Zrotation Xrotation Yrotation
    JOINT Bip001_L_Thigh
    {
      OFFSET 11.0458 -10.2192 0.0116197
      CHANNELS 3 Zrotation Xrotation Yrotation
      JOINT Bip001_L_Calf
      {
        OFFSET -0.707118 -44.0221 0.360014
        CHANNELS 3 Zrotation Xrotation Yrotation
        JOINT Bip001_L_Foot
        {
          OFFSET -0.651902 -40.5938 -3.56146
          CHANNELS 3 Zrotation Xrotation Yrotation
          JOINT Bip001_L_Toe0
          {
            OFFSET 0.0530839 -10.2181 13.1504
            CHANNELS 3 Zrotation Xrotation Yrotation
            End Site
            {
              OFFSET -1.02532e-005 0 7.55606
            }
          }
        }
      }
    }
    JOINT Bip001_R_Thigh
    {
      OFFSET -11.0458 -10.2191 0.0115893
      CHANNELS 3 Zrotation Xrotation Yrotation
      JOINT Bip001_R_Calf
      {
        OFFSET 0.706994 -44.0221 0.35984
        CHANNELS 3 Zrotation Xrotation Yrotation
        JOINT Bip001_R_Foot
        {
          OFFSET 0.651786 -40.5938 -3.5613
          CHANNELS 3 Zrotation Xrotation Yrotation
          JOINT Bip001_R_Toe0
          {
            OFFSET -0.0531479 -10.2181 13.1504
            CHANNELS 3 Zrotation Xrotation Yrotation
            End Site
            {
              OFFSET -1.02894e-005 0 7.55606
            }
          }
        }
      }
    }
    JOINT Bip001_Spine1
    {
      OFFSET 1.87041e-005 14.5736 1.08638
      CHANNELS 3 Zrotation Xrotation Yrotation
      JOINT Bip001_Spine2
      {
        OFFSET 2.24614e-005 14.5058 -1.69078
        CHANNELS 3 Zrotation Xrotation Yrotation
        JOINT Bip001_Neck
        {
          OFFSET 2.20278e-005 15.3945 -0.489414
          CHANNELS 3 Zrotation Xrotation Yrotation
          JOINT Bip001_L_Clavicle
          {
            OFFSET 6.06036 -0.000579998 0.00836775
            CHANNELS 3 Zrotation Xrotation Yrotation
            JOINT Bip001_L_UpperArm
            {
              OFFSET 11.5509 -0.0600302 0.00193952
              CHANNELS 3 Zrotation Xrotation Yrotation
              JOINT Bip001_L_Forearm
              {
                OFFSET 25.9523 0.0806089 -2.15551
                CHANNELS 3 Zrotation Xrotation Yrotation
                JOINT Bip001_L_Hand
                {
                  OFFSET 32.2476 0.153767 1.63968
                  CHANNELS 3 Zrotation Xrotation Yrotation
                  JOINT Bip001_L_Finger0
                  {
                    OFFSET 6.04639 -2.20976 5.90322
                    CHANNELS 3 Zrotation Xrotation Yrotation
                    End Site
                    {
                      OFFSET 4.22376 -1.43895 0.606486
                    }
                  }
                  JOINT Bip001_L_Finger1
                  {
                    OFFSET 11.0826 -0.704819 -0.198153
                    CHANNELS 3 Zrotation Xrotation Yrotation
                    End Site
                    {
                      OFFSET 6.20028 -0.397518 -0.0787166
                    }
                  }
                }
              }
            }
          }
          JOINT Bip001_R_Clavicle
          {
            OFFSET -6.06036 -0.000563197 0.00835105
            CHANNELS 3 Zrotation Xrotation Yrotation
            JOINT Bip001_R_UpperArm
            {
              OFFSET -11.5509 -0.0599978 0.00190698
              CHANNELS 3 Zrotation Xrotation Yrotation
              JOINT Bip001_R_Forearm
              {
                OFFSET -25.9523 0.080682 -2.1559
                CHANNELS 3 Zrotation Xrotation Yrotation
                JOINT Bip001_R_Hand
                {
                  OFFSET -32.2476 0.153858 1.63991
                  CHANNELS 3 Zrotation Xrotation Yrotation
                  JOINT Bip001_R_Finger0
                  {
                    OFFSET -6.04641 -2.20974 5.90321
                    CHANNELS 3 Zrotation Xrotation Yrotation
                    End Site
                    {
                      OFFSET -4.22376 -1.43894 0.606474
                    }
                  }
                  JOINT Bip001_R_Finger1
                  {
                    OFFSET -11.0826 -0.704789 -0.198184
                    CHANNELS 3 Zrotation Xrotation Yrotation
                    End Site
                    {
                      OFFSET -6.20028 -0.397501 -0.0787338
                    }
                  }
                }
              }
            }
          }
          JOINT Bip001_Head
          {
            OFFSET 1.09673e-005 11.2744 2.05948
            CHANNELS 3 Zrotation Xrotation Yrotation
            End Site
            {
              OFFSET 2.89576e-005 20.8808 -2.77728e-005
            }
          }
        }
      }
    }
  }
}
MOTION
Frames:	9
Frame Time:	0.04
31.4733 95.8828 -29.1125 -0.090646 -0.698539 5.84169 -0.0275948 2.99371 0.394649 6.62258 -5.79292 5.51518 -1.07712 8.96226 -14.7643 3.47827 -2.51254 -0.089111 -3.40853 -3.83691 5.20193 -1.55686 -3.04215 -4.61153 -0.468956 9.76426 -0.20888 -6.03313 -9.40595 0.958165 1.97666 -7.05445 2.45717 -0.0766758 5.98714 0.79216 -0.0763601 5.98715 0.79229 0.960839 -0.0211775 -5.41167 -24.5852 0.831345 -1.80986 -46.878 38.979 -4.32025 11.7143 -0.747794 -26.4344 7.85451 0.848357 -2.2072 0 1.27222e-014 -0 3.18055e-015 9.54167e-015 -0 21.0408 9.22586 26.1212 44.8987 -4.81765 32.8781 -46.2301 2.13373 78.8493 -64.1705 -1.975 8.11832 8.82781e-032 3.18055e-015 -1.59028e-015 -1.59028e-015 3.18056e-015 -3.18055e-015 -0.190806 16.0135 -4.82906 
31.4383 95.8843 -29.1432 -0.205064 -0.721228 5.92037 -0.0197978 3.00931 0.417278 6.79709 -5.90645 5.64595 -1.12448 9.11795 -14.997 3.45459 -2.59831 -0.079344 -3.43527 -3.80496 5.22654 -1.36657 -3.02088 -4.67104 -0.580146 9.65922 -0.190829 -6.03305 -9.29962 0.927067 1.97611 -7.05315 2.45261 -0.0584263 6.01844 0.837639 -0.0585246 6.01843 0.837042 1.17882 0.0528525 -5.63893 -24.7428 0.620656 -1.55704 -46.9056 38.9584 -4.21111 11.7324 -0.800981 -26.4184 7.83175 1.02159 -2.15519 -6.36111e-015 0 3.18055e-015 -3.18055e-015 3.18056e-015 3.18055e-015 20.49 9.11558 26.4525 50.2265 -9.85933 35.3701 -44.8846 5.00434 79.833 -57.1456 -2.62773 11.109 -3.53112e-031 1.27222e-014 1.59028e-015 0 6.36111e-015 -0 -0.497068 15.9548 -4.84961 
31.4343 95.9022 -29.1783 -0.252861 -0.699867 5.99518 -0.0289903 2.95919 0.35944 6.87316 -5.93806 5.38399 -1.1742 9.15798 -14.6753 3.27041 -2.66613 -0.076506 -3.48823 -3.68713 5.23489 -1.29625 -2.94726 -4.6666 -0.590301 9.51254 -0.172385 -6.0229 -9.19195 0.906075 1.96844 -7.02501 2.44678 -0.0767002 5.91823 0.721625 -0.0767495 5.91822 0.721733 1.70041 0.664521 -5.77934 -25.3327 -0.00195418 -1.81694 -47.3768 37.965 -3.30131 11.7156 -0.173237 -26.3158 7.93081 1.03627 -2.22686 3.18055e-015 6.36111e-015 -6.36111e-015 3.18055e-015 6.36111e-015 -6.36111e-015 20.1891 8.5118 26.5218 47.0874 -8.72836 34.0696 -44.3771 2.11716 78.2906 -56.0131 -1.0414 10.6843 -3.18055e-015 -6.36111e-015 7.95139e-015 -3.18055e-015 -6.36111e-015 4.77083e-015 -1.31014 15.8063 -4.57418 
31.5155 95.9179 -29.1963 -0.00303693 -0.659998 5.73 -0.0707579 2.9528 0.267693 6.51611 -5.61958 5.39739 -1.09248 8.56621 -14.4769 3.49144 -2.16147 -0.100419 -3.43222 -3.89591 5.17476 -1.64091 -3.14504 -4.3369 -0.45033 9.83355 -0.0853538 -6.01935 -9.3091 0.868389 1.95405 -6.96227 2.41275 -0.155661 5.90521 0.540113 -0.155661 5.90521 0.540112 1.14394 0.382654 -5.44369 -25.0368 0.356666 -1.70142 -47.6123 37.8137 -2.92078 11.7209 0.414618 -25.8301 7.80884 1.03715 -2.35039 -3.18055e-015 -9.54166e-015 -0 -3.18055e-015 -6.36111e-015 -0 21.0826 8.70216 25.6885 43.4067 -7.22606 32.2089 -43.8929 -1.33686 76.7056 -55.7921 1.24002 9.96186 -3.18055e-015 0 3.18055e-015 -0 0 3.18055e-015 -1.04351 16.3221 -4.49521 
31.6936 95.9157 -29.0892 0.620307 -0.958735 4.94611 -0.215968 2.99051 0.286077 5.71976 -4.51997 6.5119 -0.65491 7.44864 -15.0484 3.50779 -1.67067 -0.113006 -3.37941 -4.05436 5.16057 -2.36884 -3.26405 -3.9566 -0.251777 10.7013 -0.0066975 -5.96076 -9.80914 1.11919 1.93901 -6.91797 2.4032 -0.447165 5.97985 0.591569 -0.44715 5.97987 0.585817 0.75926 0.164957 -5.16227 -24.6939 0.62418 -1.58385 -47.9152 39.0694 -2.45522 11.8439 0.452588 -25.1489 7.71103 1.01173 -2.08994 6.36111e-015 -3.18055e-015 -3.18055e-015 6.36111e-015 -3.18056e-015 -3.18055e-015 21.7989 8.86468 25.0201 41.4573 -6.81216 30.6566 -43.8338 -2.9309 76.7636 -55.9574 3.37772 9.01878 3.18055e-015 3.18055e-015 1.59028e-015 -8.82782e-032 3.18056e-015 1.59028e-015 -0.694213 16.7177 -4.45728 
31.7254 95.9192 -29.0431 0.717457 -1.07826 4.48538 -0.259293 3.00913 0.356571 5.55066 -4.19979 6.97098 -0.4295 7.25765 -15.1074 3.32723 -1.75842 -0.107335 -3.36681 -3.95845 5.13998 -2.51113 -3.28266 -3.58578 -0.12565 10.8876 0.0366527 -5.96913 -9.88897 1.11006 1.91298 -6.84884 2.39283 -0.538665 6.01654 0.726708 -0.538675 6.01658 0.726907 0.856984 -0.00813053 -5.17661 -24.6271 0.814956 -1.67922 -48.0728 40.4951 -2.39041 11.9211 0.0576512 -24.2703 7.4115 1.17028 -1.64246 1.59028e-015 -6.36111e-015 1.59028e-015 3.18055e-015 -1.27222e-014 3.18055e-015 22.3268 9.11777 24.6682 41.1666 -7.65337 28.328 -44.3963 -1.86397 79.0533 -57.4922 5.40987 7.51309 -3.18055e-015 3.18055e-015 -0 0 0 -1.59028e-015 -0.488649 16.7388 -4.51397 
31.6466 95.9152 -29.0743 0.452397 -0.891523 4.49163 -0.219755 2.96903 0.368988 5.83854 -4.62316 6.79748 -0.450577 7.73092 -14.9258 3.37648 -1.93479 -0.101938 -3.35034 -3.94291 5.1263 -2.2563 -3.31575 -3.32005 -0.0340096 10.5552 -0.0229803 -6.02275 -9.70295 0.91229 1.90597 -6.79619 2.35123 -0.459651 5.93656 0.748342 -0.459668 5.93658 0.748696 1.2374 -0.162631 -5.45116 -24.9782 0.941212 -1.81233 -48.2069 40.579 -2.39658 11.9313 0.0498982 -23.6428 7.1094 1.22757 -1.46152 -1.59028e-015 -6.36111e-015 -0 -1.59028e-015 -6.36111e-015 3.18055e-015 23.2189 9.27882 23.3916 40.2731 -7.18701 26.4532 -43.3985 -1.47621 78.5225 -58.2882 5.49031 7.64249 3.18055e-015 6.36111e-015 4.77083e-015 3.18055e-015 6.36111e-015 6.36111e-015 -0.551695 16.761 -4.64215 
31.5442 95.9103 -29.1129 0.122064 -0.658225 4.69031 -0.169491 2.90089 0.282072 6.24107 -5.15626 6.26469 -0.578119 8.30437 -14.441 3.29193 -2.23807 -0.101233 -3.43108 -3.90427 5.20888 -1.91608 -3.33311 -3.11231 0.0331432 10.1722 -0.0951234 -6.09695 -9.48248 0.684504 1.90374 -6.77392 2.33758 -0.357812 5.80092 0.574782 -0.355831 5.80089 0.574454 1.19816 -0.194913 -5.43533 -24.9993 0.959831 -1.74364 -48.4528 39.7046 -2.13821 11.931 0.608522 -23.6101 7.32894 1.24769 -1.57942 -1.76556e-031 -3.18055e-015 -3.18055e-015 -8.82782e-032 -3.18056e-015 -1.59028e-015 24.7288 9.29745 21.9899 39.9811 -6.18558 23.647 -42.2005 -1.35291 78.8312 -57.6537 5.42179 7.27585 -3.18055e-015 -3.18055e-015 6.36111e-015 -6.36111e-015 -3.18056e-015 7.95139e-015 -0.393033 16.8649 -4.69436 
31.4989 95.8976 -29.079 0.0348659 -0.596677 4.69443 -0.18752 2.87303 0.192915 6.36307 -5.22345 6.2056 -0.585492 8.40012 -14.4036 3.56287 -2.10836 -0.10062 -3.35153 -4.08669 5.11349 -1.78691 -3.34226 -2.94247 0.0692859 10.1377 -0.169814 -6.12117 -9.48703 0.656312 1.90417 -6.75926 2.34261 -0.385468 5.74541 0.395994 -0.385468 5.74541 0.395996 1.09706 -0.15744 -5.29966 -24.8235 0.906742 -1.59495 -48.7089 39.0024 -1.86079 11.9167 0.868848 -23.9209 7.6109 1.16496 -1.68836 4.77083e-015 0 1.59028e-015 6.36111e-015 0 3.18055e-015 26.2395 9.20652 20.6779 39.0014 -3.69627 19.1763 -40.4674 -2.30165 78.7229 -55.8251 5.80437 6.55305 -4.41391e-032 1.59028e-015 1.59028e-015 -3.18055e-015 0 1.59028e-015 -0.143703 16.8846 -4.6881 
